<svg viewBox="0 0 96 96" xmlns="http://www.w3.org/2000/svg" xmlns:xlink="http://www.w3.org/1999/xlink" id="Icons_Contract_LTR" overflow="hidden"><g><path d="M23 14 73 14 73 82 23 82 23 14ZM17 88 79 88 79 8 17 8 17 88Z"/><rect x="49" y="66" width="18" height="4"/><rect x="29" y="22" width="38" height="4"/><rect x="29" y="30" width="38" height="4"/><rect x="29" y="38" width="38" height="4"/><rect x="29" y="46" width="19" height="4"/><path d="M32.1 75 36 71.1 39.9 75 43 71.9 39.1 68 43 64.1 39.9 61 36 64.9 32.1 61 29 64.1 32.9 68 29 71.9Z"/></g></svg>