<svg viewBox="0 0 96 96" xmlns="http://www.w3.org/2000/svg" xmlns:xlink="http://www.w3.org/1999/xlink" id="Icons_SocialNetwork" overflow="hidden"><path d="M77.17 49.39C82.1406 49.39 86.17 45.3606 86.17 40.39 86.17 35.4194 82.1406 31.39 77.17 31.39 72.1994 31.39 68.17 35.4194 68.17 40.39 68.171 40.8422 68.2078 41.2936 68.28 41.74L57.87 46.09C56.003 42.7955 52.7391 40.5288 49 39.93L49 28.75C53.8463 27.6454 56.8795 22.8213 55.775 17.975 54.6704 13.1288 49.8463 10.0955 45 11.2001 40.1537 12.3046 37.1205 17.1288 38.225 21.975 38.9937 25.3477 41.6274 27.9813 45 28.75L45 39.92C41.296 40.519 38.0575 42.7514 36.18 46L26.05 41.77C26.8094 36.8578 23.4429 32.26 18.5307 31.5006 13.6185 30.7412 9.02075 34.1077 8.26133 39.0199 7.5019 43.9321 10.8684 48.5299 15.7806 49.2893 19.1768 49.8143 22.5755 48.3596 24.54 45.54L34.76 49.72C34.0353 53.2203 34.8513 56.8633 37 59.72L28.73 68.07C24.4999 65.4598 18.9548 66.773 16.3446 71.003 13.7344 75.2331 15.0476 80.7782 19.2777 83.3884 23.5077 85.9986 29.0528 84.6854 31.663 80.4554 33.4873 77.499 33.4472 73.7566 31.56 70.84L39.89 62.51C44.1678 65.482 49.8422 65.482 54.12 62.51L62.45 70.83C59.7473 75.0016 60.9381 80.5742 65.1096 83.2769 69.2812 85.9796 74.8539 84.7889 77.5566 80.6173 80.2593 76.4458 79.0685 70.8731 74.8969 68.1704 71.9594 66.2672 68.1849 66.2397 65.22 68.1L57 59.77C58.6497 57.6104 59.5424 54.9676 59.54 52.25 59.5364 51.4343 59.4561 50.6207 59.3 49.82L69.81 45.52C71.4846 47.934 74.2321 49.3786 77.17 49.39ZM77.17 34.88C78.5673 34.88 79.7 36.0127 79.7 37.41 79.7 38.8073 78.5672 39.94 77.17 39.94 75.7727 39.94 74.64 38.8073 74.64 37.41 74.64 37.4067 74.64 37.4033 74.64 37.4 74.6509 36.0089 75.7789 34.8854 77.17 34.88ZM72.17 43.08C72.1799 42.6867 72.3674 42.319 72.68 42.08 73.4277 41.5463 74.2591 41.1408 75.14 40.88 75.8162 40.6835 76.5159 40.5792 77.22 40.57 77.9248 40.571 78.6256 40.6754 79.3 40.88 80.1905 41.1155 81.0263 41.5231 81.76 42.08 82.0666 42.3228 82.2497 42.6891 82.26 43.08L82.26 45 72.12 45ZM17.22 34.88C18.6173 34.88 19.75 36.0127 19.75 37.41 19.75 38.8073 18.6172 39.94 17.22 39.94 15.8227 39.94 14.69 38.8073 14.69 37.41 14.69 37.4067 14.69 37.4033 14.69 37.4 14.7004 36.0281 15.7984 34.9124 17.17 34.88ZM22.22 45.01 12.12 45.01 12.12 43.08C12.1299 42.6867 12.3174 42.319 12.63 42.08 13.3778 41.5463 14.2091 41.1408 15.09 40.88 15.7662 40.6835 16.4659 40.5792 17.17 40.57 17.8748 40.571 18.5756 40.6754 19.25 40.88 20.1405 41.1155 20.9763 41.5231 21.71 42.08 22.0166 42.3228 22.1997 42.6891 22.21 43.08ZM24 70.22C25.3918 70.22 26.52 71.3482 26.52 72.74 26.52 74.1318 25.3918 75.26 24 75.26 22.6082 75.26 21.48 74.1318 21.48 72.74 21.48 71.3482 22.6082 70.22 24 70.22ZM29 80.34 19 80.34 19 78.41C19.0089 78.0187 19.1923 77.6519 19.5 77.41 20.2471 76.8775 21.0788 76.4752 21.96 76.22 22.6226 76.0212 23.3085 75.9102 24 75.89 24.7053 75.8933 25.4063 76.0012 26.08 76.21 26.9702 76.4412 27.8061 76.8456 28.54 77.4 28.8477 77.6419 29.0311 78.0087 29.04 78.4ZM47 14.47C48.3918 14.47 49.52 15.5983 49.52 16.99 49.52 18.3818 48.3917 19.51 47 19.51 45.6121 19.51 44.4855 18.3878 44.48 17 44.4745 15.6083 45.5982 14.4755 46.99 14.47 46.9933 14.47 46.9967 14.47 47 14.47ZM42 24.59 42 22.66C42.0089 22.2687 42.1923 21.9019 42.5 21.66 43.2471 21.1275 44.0788 20.7252 44.96 20.47 45.6226 20.2712 46.3085 20.1602 47 20.14 47.7053 20.1433 48.4063 20.2512 49.08 20.46 49.9702 20.6912 50.8061 21.0956 51.54 21.65 51.8477 21.8919 52.0311 22.2587 52.04 22.65L52.04 24.58ZM47 44.59C48.9385 44.5845 50.5145 46.1515 50.52 48.09 50.5255 50.0285 48.9585 51.6044 47.02 51.61 45.0815 51.6155 43.5055 50.0485 43.5 48.11 43.5 48.1067 43.5 48.1033 43.5 48.1 43.5 46.1654 45.0654 44.5955 47 44.59ZM54 58.66 40 58.66 40 56C40.0133 55.4524 40.2699 54.9392 40.7 54.6 41.7378 53.8546 42.8941 53.29 44.12 52.93 45.0561 52.6542 46.0244 52.5029 47 52.48 47.979 52.4829 48.9525 52.6278 49.89 52.91 51.1303 53.2321 52.2933 53.8 53.31 54.58 53.7417 54.9256 53.9951 55.447 54 56ZM70 70.22C71.3918 70.22 72.52 71.3482 72.52 72.74 72.52 74.1318 71.3918 75.26 70 75.26 68.6082 75.26 67.48 74.1318 67.48 72.74 67.48 71.3482 68.6082 70.22 70 70.22ZM65 78.41C65.0089 78.0187 65.1923 77.6519 65.5 77.41 66.2471 76.8775 67.0788 76.4752 67.96 76.22 68.6226 76.0212 69.3085 75.9102 70 75.89 70.7053 75.8933 71.4063 76.0012 72.08 76.21 72.9702 76.4412 73.8061 76.8456 74.54 77.4 74.8477 77.6419 75.0311 78.0087 75.04 78.4L75.04 80.33 65 80.33Z"/></svg>